<?xml version="1.0" encoding="utf-8"?>
<svg
    version="1.1"
    xmlns="http://www.w3.org/2000/svg"
    xmlns:xlink="http://www.w3.org/1999/xlink"
    width="1320"
    height="4904"
    viewBox="0 0 1320 4904">
    <defs>
        <svg
            id="chartData"
            width="46"
            height="46"
            viewBox="0 0 46 46"
            fill="none">
            <path d="M11.5 33L19.125 25.375L24.125 30.375L33 21.5625V25.5H38V13H25.5V18H29.4375L24.125 23.3125L19.125 18.3125L8 29.5L11.5 33ZM5.5 45.5C4.125 45.5 2.94792 45.0104 1.96875 44.0312C0.989583 43.0521 0.5 41.875 0.5 40.5V5.5C0.5 4.125 0.989583 2.94792 1.96875 1.96875C2.94792 0.989583 4.125 0.5 5.5 0.5H40.5C41.875 0.5 43.0521 0.989583 44.0312 1.96875C45.0104 2.94792 45.5 4.125 45.5 5.5V40.5C45.5 41.875 45.0104 43.0521 44.0312 44.0312C43.0521 45.0104 41.875 45.5 40.5 45.5H5.5ZM5.5 40.5H40.5V5.5H5.5V40.5Z" fill="#F89500"/>
        </svg>
      </defs>
  </svg>
